<svg xmlns="http://www.w3.org/2000/svg" width="38" height="26" fill="none"><g clip-path="url(#a)"><path fill="#D1D1D1" fill-rule="evenodd" d="M17.271 6.397C17.271 2.864 20.117 0 23.627 0s6.355 2.864 6.355 6.397a6.5 6.5 0 0 1-.05.806 6.382 6.382 0 0 1 2.87.33c.131-.33.395-.791.913-1.176.92-.684 2.079-.618 2.079-.618h.97v2.83h-.85c-.28 0-.56.04-.88.322l-.013.012a6.399 6.399 0 0 1 1.997 4.656c0 3.533-2.846 6.397-6.356 6.397-.995 0-1.938-.23-2.777-.642a1.263 1.263 0 0 0-.405.924c0 .885 1.08 1.006 1.08 1.006h4.476c.24 0 1.599.08 2.758 1.01 1.16.931 1.359 2.53 1.359 2.53s-2.958.805-3.158.845c-.2-1.529-1.884-1.448-1.884-1.448H27.84c-1.52 0-3.358-1.047-3.398-3.22-.032-1.72 1.116-2.688 1.594-3.016a6.397 6.397 0 0 1-1.68-5.193 6.31 6.31 0 0 1-4.99-1.608h-.841c-1.04 0-1.719.685-2.119 1.409a2.633 2.633 0 0 0-.278.9v7.026H13.09v-4.5c-.986.633-2.157 1-3.413 1a6.295 6.295 0 0 1-3.382-.98v4.278H3.257V4.184h3.038v.98c.98-.62 2.139-.98 3.382-.98 3.079 0 5.646 2.204 6.23 5.13.117-.13.256-.26.42-.382a3.178 3.178 0 0 1 1.259-.542 6.432 6.432 0 0 1-.314-1.993Zm3.158-.02c0 1.833 1.477 3.32 3.298 3.32s3.297-1.487 3.297-3.32c0-1.833-1.476-3.32-3.297-3.32-1.821 0-3.298 1.487-3.298 3.32Zm7.035 7.162c0 1.833 1.477 3.319 3.298 3.319s3.298-1.486 3.298-3.32c0-1.832-1.477-3.319-3.298-3.319s-3.298 1.487-3.298 3.32Zm-17.687.341c-1.821 0-3.298-1.486-3.298-3.319s1.477-3.319 3.298-3.319c1.82 0 3.297 1.486 3.297 3.32 0 1.832-1.476 3.319-3.297 3.319Z" clip-rule="evenodd"/></g><defs><clipPath id="a"><path fill="#fff" d="M.5 0H38v25.5H.5z"/></clipPath></defs></svg>