<svg width="100%" height="100%" viewBox="0 0 100 34" fill="none" xmlns="http://www.w3.org/2000/svg">
<path d="M9.18892 9.13636C9.18892 10.0455 9.02699 10.8366 8.70312 11.5099C8.37926 12.1804 7.93324 12.7003 7.36506 13.0696C6.79972 13.4361 6.14915 13.6193 5.41335 13.6193C4.67756 13.6193 4.02557 13.4361 3.45739 13.0696C2.89205 12.7003 2.44744 12.1804 2.12358 11.5099C1.80256 10.8366 1.64205 10.0455 1.64205 9.13636C1.64205 8.22727 1.80256 7.4375 2.12358 6.76705C2.44744 6.09375 2.89347 5.57386 3.46165 5.20739C4.02983 4.83807 4.6804 4.65341 5.41335 4.65341C6.14915 4.65341 6.79972 4.83807 7.36506 5.20739C7.93324 5.57386 8.37926 6.09375 8.70312 6.76705C9.02699 7.4375 9.18892 8.22727 9.18892 9.13636ZM8.41335 9.13636C8.41335 8.35511 8.28267 7.68608 8.02131 7.12926C7.75994 6.5696 7.40341 6.14205 6.9517 5.84659C6.5 5.55114 5.98722 5.40341 5.41335 5.40341C4.84233 5.40341 4.33097 5.55114 3.87926 5.84659C3.42756 6.14205 3.0696 6.56818 2.8054 7.125C2.54403 7.68182 2.41335 8.35227 2.41335 9.13636C2.41335 9.91761 2.54403 10.5866 2.8054 11.1435C3.06676 11.7003 3.4233 12.1278 3.875 12.4261C4.3267 12.7216 4.83949 12.8693 5.41335 12.8693C5.98722 12.8693 6.5 12.7216 6.9517 12.4261C7.40625 12.1307 7.7642 11.7045 8.02557 11.1477C8.28693 10.5881 8.41619 9.91761 8.41335 9.13636ZM15.2548 6.95455C15.2065 6.46875 14.992 6.08239 14.6113 5.79545C14.2306 5.50852 13.7519 5.36506 13.1752 5.36506C12.769 5.36506 12.411 5.43466 12.1013 5.57386C11.7945 5.71307 11.5531 5.90625 11.3769 6.15341C11.2036 6.39773 11.117 6.67614 11.117 6.98864C11.117 7.21875 11.1667 7.42045 11.2661 7.59375C11.3656 7.76705 11.4991 7.91619 11.6667 8.04119C11.8371 8.16335 12.0246 8.26847 12.2292 8.35653C12.4366 8.4446 12.6454 8.51847 12.8556 8.57812L13.7761 8.84233C14.0545 8.91903 14.3329 9.01705 14.6113 9.13636C14.8897 9.25568 15.144 9.40625 15.3741 9.58807C15.607 9.76705 15.7931 9.98722 15.9323 10.2486C16.0744 10.5071 16.1454 10.8182 16.1454 11.1818C16.1454 11.6477 16.0246 12.0668 15.7832 12.4389C15.5417 12.8111 15.1951 13.1065 14.7434 13.3253C14.2917 13.5412 13.7505 13.6491 13.1198 13.6491C12.5261 13.6491 12.0104 13.5511 11.5729 13.3551C11.1354 13.1562 10.7917 12.8821 10.5417 12.5327C10.2917 12.1832 10.1511 11.7784 10.1198 11.3182H10.938C10.9664 11.6619 11.08 11.9531 11.2789 12.1918C11.4778 12.4304 11.7363 12.6122 12.0545 12.7372C12.3727 12.8594 12.7278 12.9205 13.1198 12.9205C13.5545 12.9205 13.9408 12.848 14.2789 12.7031C14.6198 12.5554 14.8869 12.3509 15.08 12.0895C15.2761 11.8253 15.3741 11.5185 15.3741 11.169C15.3741 10.8736 15.2974 10.6264 15.144 10.4276C14.9906 10.2259 14.7761 10.0568 14.5005 9.92045C14.2278 9.78409 13.911 9.66335 13.5502 9.55824L12.5062 9.25142C11.8215 9.04687 11.2903 8.7642 10.9124 8.40341C10.5346 8.04261 10.3457 7.58239 10.3457 7.02273C10.3457 6.55398 10.4707 6.14205 10.7207 5.78693C10.9735 5.42898 11.3144 5.15057 11.7434 4.9517C12.1752 4.75 12.6596 4.64915 13.1965 4.64915C13.7391 4.64915 14.2192 4.74858 14.6369 4.94744C15.0545 5.14631 15.3854 5.42045 15.6298 5.76989C15.8769 6.11648 16.009 6.51136 16.0261 6.95455H15.2548ZM18.2599 4.77273V13.5H17.463V4.77273H18.2599ZM19.9802 13.5V4.77273H25.0427V5.48864H20.7771V8.77415H24.7742V9.49006H20.7771V12.7841H25.1279V13.5H19.9802ZM29.062 13.5H26.5052V4.77273H29.2154C30.0478 4.77273 30.7594 4.94602 31.3504 5.29261C31.9441 5.6392 32.3987 6.13636 32.714 6.78409C33.0293 7.43182 33.187 8.20881 33.187 9.11506C33.187 10.0298 33.0251 10.8153 32.7012 11.4716C32.3802 12.125 31.9114 12.6264 31.295 12.9759C30.6813 13.3253 29.937 13.5 29.062 13.5ZM27.3021 12.7841H29.0151C29.7651 12.7841 30.393 12.6364 30.8987 12.3409C31.4043 12.0455 31.7836 11.6236 32.0364 11.0753C32.2893 10.527 32.4157 9.87358 32.4157 9.11506C32.4129 8.36222 32.2879 7.71449 32.0407 7.17188C31.7964 6.62926 31.4327 6.21307 30.9498 5.9233C30.4697 5.63352 29.8759 5.48864 29.1685 5.48864H27.3021V12.7841ZM34.5185 13.5V4.77273H35.3153V12.7841H39.4744V13.5H34.5185ZM40.6685 13.5V4.77273H45.731V5.48864H41.4653V8.77415H45.4625V9.49006H41.4653V12.7841H45.8162V13.5H40.6685ZM1.63352 21.7727H3.90909L6.3125 27.6364H6.41477L8.81818 21.7727H11.0938V30.5H9.30398V24.8196H9.23153L6.97301 30.4574H5.75426L3.49574 24.7983H3.4233V30.5H1.63352V21.7727ZM13.5183 30.5H11.541L14.5538 21.7727H16.9316L19.9401 30.5H17.9629L15.7768 23.767H15.7086L13.5183 30.5ZM13.3947 27.0696H18.0651V28.5099H13.3947V27.0696ZM20.3906 30.5V21.7727H22.2357V28.9787H25.9772V30.5H20.3906ZM28.4443 21.7727V30.5H26.5991V21.7727H28.4443ZM36.6621 21.7727V30.5H35.0684L31.2715 25.0071H31.2076V30.5H29.3624V21.7727H30.9817L34.7488 27.2614H34.8255V21.7727H36.6621ZM45.6065 26.1364C45.6065 27.0881 45.4261 27.8977 45.0653 28.5653C44.7074 29.233 44.2188 29.7429 43.5994 30.0952C42.983 30.4446 42.2898 30.6193 41.5199 30.6193C40.7443 30.6193 40.0483 30.4432 39.4318 30.0909C38.8153 29.7386 38.3281 29.2287 37.9702 28.5611C37.6122 27.8935 37.4332 27.0852 37.4332 26.1364C37.4332 25.1847 37.6122 24.375 37.9702 23.7074C38.3281 23.0398 38.8153 22.5312 39.4318 22.1818C40.0483 21.8295 40.7443 21.6534 41.5199 21.6534C42.2898 21.6534 42.983 21.8295 43.5994 22.1818C44.2188 22.5312 44.7074 23.0398 45.0653 23.7074C45.4261 24.375 45.6065 25.1847 45.6065 26.1364ZM43.7358 26.1364C43.7358 25.5199 43.6435 25 43.4588 24.5767C43.277 24.1534 43.0199 23.8324 42.6875 23.6136C42.3551 23.3949 41.9659 23.2855 41.5199 23.2855C41.0739 23.2855 40.6847 23.3949 40.3523 23.6136C40.0199 23.8324 39.7614 24.1534 39.5767 24.5767C39.3949 25 39.304 25.5199 39.304 26.1364C39.304 26.7528 39.3949 27.2727 39.5767 27.696C39.7614 28.1193 40.0199 28.4403 40.3523 28.6591C40.6847 28.8778 41.0739 28.9872 41.5199 28.9872C41.9659 28.9872 42.3551 28.8778 42.6875 28.6591C43.0199 28.4403 43.277 28.1193 43.4588 27.696C43.6435 27.2727 43.7358 26.7528 43.7358 26.1364ZM48.0097 30.5L45.5126 21.7727H47.5282L48.9728 27.8366H49.0452L50.639 21.7727H52.3648L53.9543 27.8494H54.031L55.4756 21.7727H57.4913L54.9941 30.5H53.1958L51.5339 24.794H51.4657L49.808 30.5H48.0097ZM62.5312 24.2827C62.4971 23.9389 62.3508 23.6719 62.0923 23.4815C61.8337 23.2912 61.4829 23.196 61.0397 23.196C60.7386 23.196 60.4843 23.2386 60.2769 23.3239C60.0695 23.4062 59.9104 23.5213 59.7996 23.669C59.6917 23.8168 59.6377 23.9844 59.6377 24.1719C59.632 24.3281 59.6647 24.4645 59.7357 24.581C59.8096 24.6974 59.9104 24.7983 60.0383 24.8835C60.1661 24.9659 60.3138 25.0384 60.4815 25.1009C60.6491 25.1605 60.8281 25.2116 61.0184 25.2543L61.8025 25.4418C62.1832 25.527 62.5326 25.6406 62.8508 25.7827C63.169 25.9247 63.4445 26.0994 63.6775 26.3068C63.9104 26.5142 64.0908 26.7585 64.2187 27.0398C64.3494 27.321 64.4161 27.6435 64.419 28.0071C64.4161 28.5412 64.2798 29.0043 64.0099 29.3963C63.7428 29.7855 63.3565 30.0881 62.8508 30.304C62.3479 30.517 61.7414 30.6236 61.0312 30.6236C60.3266 30.6236 59.713 30.5156 59.1903 30.2997C58.6704 30.0838 58.2641 29.7642 57.9715 29.3409C57.6817 28.9148 57.5298 28.3878 57.5156 27.7599H59.3011C59.321 28.0526 59.4048 28.2969 59.5525 28.4929C59.7031 28.6861 59.9033 28.8324 60.1533 28.9318C60.4062 29.0284 60.6917 29.0767 61.0099 29.0767C61.3224 29.0767 61.5937 29.0312 61.8238 28.9403C62.0567 28.8494 62.2371 28.723 62.365 28.5611C62.4928 28.3991 62.5567 28.2131 62.5567 28.0028C62.5567 27.8068 62.4985 27.642 62.382 27.5085C62.2684 27.375 62.1008 27.2614 61.8792 27.1676C61.6604 27.0739 61.392 26.9886 61.0738 26.9119L60.1235 26.6733C59.3877 26.4943 58.8067 26.2145 58.3806 25.8338C57.9545 25.4531 57.7428 24.9403 57.7457 24.2955C57.7428 23.767 57.8835 23.3054 58.1675 22.9105C58.4545 22.5156 58.8479 22.2074 59.3479 21.9858C59.8479 21.7642 60.4161 21.6534 61.0525 21.6534C61.7002 21.6534 62.2656 21.7642 62.7485 21.9858C63.2343 22.2074 63.6121 22.5156 63.882 22.9105C64.1519 23.3054 64.2911 23.7628 64.2996 24.2827H62.5312ZM65.0601 30.5V21.7727H66.9053V25.6207H67.0203L70.1609 21.7727H72.3726L69.1339 25.6804L72.4109 30.5H70.2036L67.8129 26.9119L66.9053 28.0199V30.5H65.0601ZM74.5787 21.7727V30.5H72.7335V21.7727H74.5787ZM75.4968 30.5V21.7727H81.3775V23.294H77.342V25.3736H81.0749V26.8949H77.342V28.9787H81.3945V30.5H75.4968ZM88.0314 24.5938C87.9717 24.3864 87.8879 24.2031 87.78 24.044C87.672 23.8821 87.5399 23.7457 87.3837 23.6349C87.2303 23.5213 87.0541 23.4347 86.8553 23.375C86.6592 23.3153 86.4419 23.2855 86.2033 23.2855C85.7572 23.2855 85.3652 23.3963 85.0271 23.6179C84.6919 23.8395 84.4305 24.1619 84.243 24.5852C84.0555 25.0057 83.9618 25.5199 83.9618 26.1278C83.9618 26.7358 84.0541 27.2528 84.2388 27.679C84.4234 28.1051 84.6848 28.4304 85.0229 28.6548C85.3609 28.8764 85.7601 28.9872 86.2203 28.9872C86.6379 28.9872 86.9945 28.9134 87.2899 28.7656C87.5882 28.6151 87.8155 28.4034 87.9717 28.1307C88.1308 27.858 88.2104 27.5355 88.2104 27.1634L88.5854 27.2188H86.3354V25.8295H89.9874V26.929C89.9874 27.696 89.8254 28.3551 89.5016 28.9062C89.1777 29.4545 88.7317 29.8778 88.1635 30.1761C87.5953 30.4716 86.9447 30.6193 86.2118 30.6193C85.3936 30.6193 84.6749 30.4389 84.0555 30.0781C83.4362 29.7145 82.9533 29.1989 82.6067 28.5312C82.2629 27.8608 82.0911 27.0653 82.0911 26.1449C82.0911 25.4375 82.1933 24.8068 82.3979 24.2528C82.6053 23.696 82.895 23.2244 83.2672 22.8381C83.6393 22.4517 84.0726 22.1577 84.5669 21.956C85.0612 21.7543 85.5967 21.6534 86.1734 21.6534C86.6678 21.6534 87.128 21.7259 87.5541 21.8707C87.9803 22.0128 88.3581 22.2145 88.6876 22.4759C89.02 22.7372 89.2913 23.0483 89.5016 23.4091C89.7118 23.767 89.8467 24.1619 89.9064 24.5938H88.0314ZM98.7933 26.1364C98.7933 27.0881 98.6129 27.8977 98.2521 28.5653C97.8941 29.233 97.4055 29.7429 96.7862 30.0952C96.1697 30.4446 95.4765 30.6193 94.7066 30.6193C93.931 30.6193 93.235 30.4432 92.6185 30.0909C92.0021 29.7386 91.5148 29.2287 91.1569 28.5611C90.7989 27.8935 90.62 27.0852 90.62 26.1364C90.62 25.1847 90.7989 24.375 91.1569 23.7074C91.5148 23.0398 92.0021 22.5312 92.6185 22.1818C93.235 21.8295 93.931 21.6534 94.7066 21.6534C95.4765 21.6534 96.1697 21.8295 96.7862 22.1818C97.4055 22.5312 97.8941 23.0398 98.2521 23.7074C98.6129 24.375 98.7933 25.1847 98.7933 26.1364ZM96.9225 26.1364C96.9225 25.5199 96.8302 25 96.6455 24.5767C96.4637 24.1534 96.2066 23.8324 95.8742 23.6136C95.5418 23.3949 95.1526 23.2855 94.7066 23.2855C94.2606 23.2855 93.8714 23.3949 93.539 23.6136C93.2066 23.8324 92.9481 24.1534 92.7634 24.5767C92.5816 25 92.4907 25.5199 92.4907 26.1364C92.4907 26.7528 92.5816 27.2727 92.7634 27.696C92.9481 28.1193 93.2066 28.4403 93.539 28.6591C93.8714 28.8778 94.2606 28.9872 94.7066 28.9872C95.1526 28.9872 95.5418 28.8778 95.8742 28.6591C96.2066 28.4403 96.4637 28.1193 96.6455 27.696C96.8302 27.2727 96.9225 26.7528 96.9225 26.1364Z" fill="#1D1D1D"/>
</svg>
