<svg xmlns="http://www.w3.org/2000/svg" width="32" height="32" fill="none">
  <path fill="#888"
    d="M15.5 1h1v2h-1V1ZM15.5 13h1v2h-1v-2ZM15.5 17h1v2h-1v-2ZM15.5 21h1v2h-1v-2ZM15.5 25h1v2h-1v-2ZM15.5 29h1v2h-1v-2Z"></path>
  <path fill="#888"
    d="M30.5 11a.5.5 0 0 0 .5-.5v-5a.5.5 0 0 0-.5-.5h-5.962L23.995.934l-.99.132L23.529 5h-.991L21.995.934l-.99.132L21.529 5H10.471l.524-3.934-.99-.132L9.462 5h-.991l.524-3.934-.99-.132L7.462 5H1.5a.5.5 0 0 0-.5.5v5a.5.5 0 0 0 .5.5H2v7H1v1h3v-1H3v-7h3.664l-2.66 19.934.992.132L7.672 11h.991l-2.66 19.934.992.132L9.672 11h12.654l2.677 20.066.991-.132L23.337 11h.991l2.677 20.066.991-.132L25.337 11H29v7h-1v1h3v-1h-1v-7h.5ZM2 6h28v4H2V6Z"></path>
  <path fill="#888" d="M6 7.5h4v1H6v-1ZM22 7.5h4v1h-4v-1ZM14 7.5h4v1h-4v-1Z"></path>
</svg>