<svg xmlns="http://www.w3.org/2000/svg" width="32" height="32" fill="none"><g clip-path="url(#bus_svg__a)"><mask id="bus_svg__b" width="33" height="33" x="-1" y="0" maskUnits="userSpaceOnUse" style="mask-type:luminance"><path fill="#fff" d="M-.002 0h32v32h-32V0Z"></path></mask><g mask="url(#bus_svg__b)"><path stroke="#888" stroke-linecap="round" stroke-linejoin="round" stroke-miterlimit="10" stroke-width="0.938" d="M25.859 28.526v1.755c0 .691-.56 1.25-1.25 1.25H21.45c-.69 0-1.25-.559-1.25-1.25v-1.75M11.796 28.531v1.75c0 .691-.56 1.25-1.25 1.25H7.39c-.69 0-1.25-.559-1.25-1.25v-1.755"></path><path stroke="#888" stroke-linecap="round" stroke-linejoin="round" stroke-miterlimit="10" stroke-width="0.938" d="M4.404 11.147V4.969c0-1.036.84-1.875 1.875-1.875h19.438c1.035 0 1.875.84 1.875 1.875v21.687c0 1.036-.84 1.875-1.875 1.875H6.279a1.875 1.875 0 0 1-1.875-1.875V13.334M8.373 3.094V1.719c0-.69.56-1.25 1.25-1.25h12.753c.69 0 1.25.56 1.25 1.25v1.375"></path><path stroke="#888" stroke-linecap="round" stroke-linejoin="round" stroke-miterlimit="10" stroke-width="0.938" d="M25.092 18.47H6.904a.625.625 0 0 1-.625-.624V7.469c0-.345.28-.625.625-.625h18.188c.345 0 .625.28.625.625v10.377c0 .345-.28.625-.625.625Z"></path><path fill="#888" d="M24.094 4.969a.469.469 0 1 1-.938 0 .469.469 0 0 1 .938 0ZM8.842 4.969a.469.469 0 1 1-.938 0 .469.469 0 0 1 .938 0Z"></path><path stroke="#888" stroke-linecap="round" stroke-linejoin="round" stroke-miterlimit="10" stroke-width="0.938" d="M11.012 4.969h9.977M18.976 21.283h1.974c.27 0 .452.279.343.527l-1.544 3.498a.375.375 0 0 1-.343.224H12.59a.375.375 0 0 1-.343-.224l-1.544-3.498a.375.375 0 0 1 .343-.527h5.742M27.592 25.532h-4.936a.125.125 0 0 1-.114-.175l.984-2.294a.438.438 0 0 1 .402-.265h3.664M4.404 25.532H9.34c.09 0 .15-.092.114-.175l-.984-2.294a.437.437 0 0 0-.402-.265H4.404M31.092 13.469h-1a.438.438 0 0 1-.438-.438V6.844h1.438c.241 0 .437.196.437.437v5.75a.438.438 0 0 1-.437.438ZM29.654 6.844h-2.062M.904 13.469h1a.437.437 0 0 0 .438-.438V6.844H.904a.437.437 0 0 0-.437.437v5.75c0 .242.196.438.437.438ZM2.342 6.844h2.062M13.828 23.407h4.341"></path></g></g><defs><clipPath id="bus_svg__a"><path fill="#fff" d="M0 0h32v32H0z"></path></clipPath></defs></svg>