<svg xmlns="http://www.w3.org/2000/svg" width="32" height="32" fill="none"><g fill="#888" clip-path="url(#hospital_svg__a)"><path d="M16 0C7.171 0 0 7.171 0 16s7.171 16 16 16 16-7.171 16-16S24.829 0 16 0Zm0 30.612C7.942 30.612 1.388 24.058 1.388 16S7.942 1.388 16 1.388 30.612 7.942 30.612 16 24.058 30.612 16 30.612Z"></path><path d="M24.328 12.53H19.47V7.672a.691.691 0 0 0-.694-.694h-5.552a.691.691 0 0 0-.694.694v4.858H7.672a.691.691 0 0 0-.693.694v5.552c0 .385.308.694.693.694h4.858v4.858c0 .385.309.694.694.694h5.552a.691.691 0 0 0 .694-.694V19.47h4.858a.691.691 0 0 0 .694-.694v-5.552c-.039-.385-.347-.694-.694-.694Zm-.655 5.552h-4.897a.691.691 0 0 0-.694.694v4.858h-4.164v-4.858a.691.691 0 0 0-.694-.694H8.366v-4.164h4.858a.691.691 0 0 0 .694-.694V8.366h4.203v4.858c0 .386.308.694.694.694h4.857v4.164Z"></path></g><defs><clipPath id="hospital_svg__a"><path fill="#fff" d="M0 0h32v32H0z"></path></clipPath></defs></svg>