<svg xmlns="http://www.w3.org/2000/svg" width="32" height="32" fill="none"><g clip-path="url(#trees_svg__a)"><mask id="trees_svg__b" width="33" height="33" x="-1" y="0" maskUnits="userSpaceOnUse" style="mask-type:luminance"><path fill="#fff" d="M-.002 0h32v32h-32V0Z"></path></mask><g stroke="#888" stroke-linecap="round" stroke-linejoin="round" stroke-miterlimit="10" stroke-width="0.938" mask="url(#trees_svg__b)"><path d="M26.684 14.642c.195-.032.393-.048.595-.048 2.348 0 4.25 2.152 4.25 4.807 0 2.654-1.902 4.806-4.25 4.806-2.347 0-4.25-2.152-4.25-4.806 0-.484.063-.95.18-1.39M27.28 19.546v11.986M27.28 22.123l1.619-1.62M28.067 9.941a3.946 3.946 0 0 0-2.204-2.176.513.513 0 0 1-.324-.535 2.533 2.533 0 0 0-1.904-2.761.528.528 0 0 1-.398-.514V3.95a3.48 3.48 0 0 0-6.961 0v.005a.528.528 0 0 1-.398.514 2.534 2.534 0 0 0-1.904 2.76.513.513 0 0 1-.324.536c-.269.107-.523.241-.76.401"></path><path d="M14.379 16.495c.26.485.675.992 1.34 1.31 1.157.555 2.272.152 2.535.048a3.375 3.375 0 0 0 1.502-1.196c.184.263.657.86 1.501 1.196.262.104 1.378.507 2.535-.047 1.258-.602 1.626-1.885 1.725-2.399a.379.379 0 0 1 .244-.284 3.938 3.938 0 0 0 2.545-3.073M19.756 10.048v21.484M19.755 13.383l-2.185-2.185M19.756 14.283l2.185-2.185M.467 31.532h31.062"></path><path d="M2.663 6.216C3.91 3.053 5.586.47 7.43.47c3.845 0 6.962 11.236 6.962 15.534 0 4.299-3.117 7.784-6.962 7.784-3.846 0-6.963-3.485-6.963-7.784 0-1.804.55-4.832 1.471-7.737M7.43 14.416v17.116M7.43 17.507l2.093-2.093M7.43 19.494l-2.094-2.093"></path></g></g><defs><clipPath id="trees_svg__a"><path fill="#fff" d="M0 0h32v32H0z"></path></clipPath></defs></svg>