<svg xmlns="http://www.w3.org/2000/svg" width="32" height="32" fill="none"><g fill="#888" clip-path="url(#medicine_svg__a)"><path d="M7.855 7.875a.625.625 0 1 0 0 1.25.625.625 0 0 0 0-1.25ZM13.48 19.561h-1.875v-1.874a.625.625 0 0 0-1.25 0v1.874H8.48a.625.625 0 0 0 0 1.25h1.875v1.875a.625.625 0 0 0 1.25 0v-1.875h1.875a.625.625 0 0 0 0-1.25Z"></path><path d="M30.348 20.124a4.997 4.997 0 0 0-6.83-1.83L20.98 19.76v-5.428c0-.67-.222-1.336-.625-1.874L17.23 8.29V6.517a1.878 1.878 0 0 0 1.25-1.767V1.875A1.877 1.877 0 0 0 16.605 0H5.355A1.877 1.877 0 0 0 3.48 1.875V4.75c0 .814.523 1.51 1.25 1.767v1.774l-3.125 4.167a3.147 3.147 0 0 0-.625 1.874v12.104a3.128 3.128 0 0 0 3.125 3.125H14.15a4.995 4.995 0 0 0 6.792 1.767l7.577-4.374a5.003 5.003 0 0 0 1.83-6.83ZM4.73 1.874c0-.344.28-.624.625-.624h11.25c.344 0 .625.28.625.625V4.75c0 .344-.28.625-.625.625H5.355a.626.626 0 0 1-.625-.625V1.875ZM2.605 13.208l3.25-4.332A.625.625 0 0 0 5.98 8.5V6.625h10v1.25h-5.625a.625.625 0 0 0 0 1.25h5.937l3.062 4.082c.2.267.325.587.362.917H2.244c.037-.33.162-.65.361-.917Zm1.5 15.104a1.877 1.877 0 0 1-1.875-1.875v-.631h11.355a5.008 5.008 0 0 0 .03 2.506h-9.51Zm9.97-3.75H2.23v-9.187h17.5v5.107l-3.79 2.188a4.963 4.963 0 0 0-1.865 1.892Zm6.24 5.685a3.75 3.75 0 1 1-3.75-6.495l3.393-1.958 3.75 6.494-3.392 1.959Zm7.578-4.375-3.102 1.791-3.75-6.494 3.102-1.791a3.748 3.748 0 0 1 5.122 1.372 3.752 3.752 0 0 1-1.372 5.122Z"></path></g><defs><clipPath id="medicine_svg__a"><path fill="#fff" d="M0 0h32v32H0z"></path></clipPath></defs></svg>