<svg xmlns="http://www.w3.org/2000/svg" width="32" height="32" fill="none"><g clip-path="url(#slide_svg__a)"><path fill="#888" d="M31.467 26.617H29.67L20.835 7.904l.39-1.363a2.668 2.668 0 0 0-1.986-3.335l-.628-.14a2.67 2.67 0 0 0-3.143 1.87L14.15 9.552H13.08L12.3 7.904l.39-1.363a2.668 2.668 0 0 0-1.986-3.335l-.645-.144A2.674 2.674 0 0 0 6.924 4.91L.02 29.138a.533.533 0 1 0 1.027.291l.797-2.812h7.43l-.72 2.52a.533.533 0 1 0 1.026.294l3.43-12.007 5.708 12.088a.534.534 0 0 0 .482.305h12.267a.533.533 0 0 0 .533-.533V27.15a.533.533 0 0 0-.533-.534ZM16.494 5.23a1.601 1.601 0 0 1 1.886-1.123l.627.14a1.6 1.6 0 0 1 1.191 2.001l-.334 1.17H15.87l.625-2.188Zm-8.546-.018a1.605 1.605 0 0 1 1.88-1.108l.646.143a1.6 1.6 0 0 1 1.191 2.001l-.334 1.17H7.296l.652-2.206ZM3.96 19.151l.605-2.134h7.45l-.609 2.134H3.961Zm7.142 1.066-.61 2.134h-7.44l.605-2.134h7.445Zm-6.235-4.266.605-2.134h5.833l1.008 2.134H4.868Zm.908-3.2.604-2.134h3.416l1.007 2.134H5.776Zm-3.63 12.8.605-2.134h7.437l-.61 2.134H2.147Zm20.254 3.2h-2.862L10.616 9.856a.534.534 0 0 0-.482-.305H6.682l.302-1.067h4.41l8.923 18.894a.534.534 0 0 0 .482.306h1.6v1.067Zm1.067 0v-1.6a.533.533 0 0 0-.534-.534h-1.795l-7.556-16h4.747l8.563 18.134h-3.425Zm7.466 0h-2.862L19.15 9.856a.533.533 0 0 0-.482-.305H15.26l.304-1.067h4.365l8.922 18.894a.534.534 0 0 0 .482.306h1.6v1.067Z"></path></g><defs><clipPath id="slide_svg__a"><path fill="#fff" d="M0 0h32v32H0z"></path></clipPath></defs></svg>