<svg xmlns="http://www.w3.org/2000/svg" width="32" height="32" fill="none"><g clip-path="url(#graduation-cap_svg__a)"><path fill="#888" d="M31.073 8.72 17.17 2.384a2.82 2.82 0 0 0-2.34 0L.927 8.72a1.534 1.534 0 0 0 0 2.818l4.406 2.009v7.249c0 1.226.796 2.336 2.134 3.227v1.648a2.133 2.133 0 1 0 1.066 0v-1.035A17.484 17.484 0 0 0 16 26.13c5.981 0 10.666-2.343 10.666-5.333v-7.25l4.407-2.008a1.534 1.534 0 0 0 0-2.818ZM9.067 27.73a1.067 1.067 0 1 1-2.134 0 1.067 1.067 0 0 1 2.134 0ZM6.4 20.797v-6.763l1.067.486v8.19A2.603 2.603 0 0 1 6.4 20.797Zm19.2 0c0 2.313-4.396 4.266-9.6 4.266-2.98 0-5.69-.64-7.467-1.624v-8.432l6.297 2.87c.743.34 1.597.34 2.34 0l8.43-3.843v6.763Zm5.03-10.23-13.902 6.34a1.777 1.777 0 0 1-1.455 0l-6.041-2.755 4.703-2.38a4.28 4.28 0 0 0 2.065.491c1.794 0 3.2-.937 3.2-2.133S17.794 7.997 16 7.997c-1.794 0-3.2.937-3.2 2.133.003.314.1.62.277.88L7.99 13.584l-6.62-3.017a.468.468 0 0 1 0-.876l13.904-6.339a1.775 1.775 0 0 1 1.454 0l13.904 6.34a.468.468 0 0 1 0 .875Zm-16.763-.437c0-.503.912-1.067 2.133-1.067s2.133.563 2.133 1.067c0 .503-.912 1.067-2.133 1.067s-2.133-.564-2.133-1.067Z"></path></g><defs><clipPath id="graduation-cap_svg__a"><path fill="#fff" d="M0 0h32v32H0z"></path></clipPath></defs></svg>