<svg xmlns="http://www.w3.org/2000/svg" width="32" height="32" fill="none"><path fill="#888" d="M29.999 16.462A.5.5 0 0 0 29.5 16h-7.174l-.327-6.525A.5.5 0 0 0 21.5 9H18V6.5a4.498 4.498 0 0 0-6-4.242A4.498 4.498 0 0 0 6 6.5V9H2.5a.5.5 0 0 0-.5.475l-1 20a.5.5 0 0 0 .5.525h29a.5.5 0 0 0 .499-.538l-1-13ZM28.5 27.402 29.566 29h-2.131l1.065-1.599Zm1.355.229-.87-1.305L28.052 17h.985l.818 10.63ZM27.047 17l.938 9.372-1.098 1.645L26.04 17h1.008Zm-5.723-1h-.94l-.354-6h.994l.3 6Zm-2.295-6 .353 6h-1.057l-.3-6h1.004ZM13.5 3A3.504 3.504 0 0 1 17 6.5V9h-2V6.5a4.492 4.492 0 0 0-1.67-3.496c.056-.002.113-.004.17-.004Zm-1.5.338A3.504 3.504 0 0 1 14 6.5V9h-4V6.5a3.504 3.504 0 0 1 2-3.162ZM7 6.5a3.504 3.504 0 0 1 3.67-3.496A4.493 4.493 0 0 0 9 6.5V9H7V6.5ZM13.037 29H2.026l.95-19H6v3.232l-1.277.852a.5.5 0 0 0-.223.416v4a.5.5 0 0 0 .5.5h3a.5.5 0 0 0 .5-.5v-4a.5.5 0 0 0-.223-.416L7 13.232V10h7v1.5a.5.5 0 0 0 1 0V10h2.024l.3 6H14.5a.5.5 0 0 0-.499.462L13.037 29ZM6.5 14.1l1 .668V18h-2v-3.232l1-.667Zm8.463 2.9h10.074l.923 12H14.04l.923-12Z"></path><path fill="#888" d="M22.5 19a.5.5 0 0 0-.5.5v4a1.502 1.502 0 0 1-1.5 1.5h-1a1.502 1.502 0 0 1-1.5-1.5v-4a.5.5 0 0 0-1 0v4a2.502 2.502 0 0 0 2.5 2.5h1a2.502 2.502 0 0 0 2.5-2.5v-4a.5.5 0 0 0-.5-.5Z"></path></svg>